<svg xmlns="http://www.w3.org/2000/svg" viewBox="162.6 195.1 152.5 25" enable-background="new 162.6 195.1 152.5 25"><g fill="#302644"><path d="m177.2 218.2c0 0-.7 1.2.4 1.5 1.5.4 2-2.1 2-2.1l-2.4.6"/><path d="m177.5 218.2c0 0-1 2.3-2.4 1.8-1.4-.4.4-2 .4-2l2 .2"/><path d="m175.7 217.9c0 0-2 3-3.3 1.8-.7-.7.5-2.5.5-2.5l2.8.7"/></g><path d="m176.7 195.1c-6.4 0-11.6 5.2-11.6 11.6 0 .9.1 1.8.3 2.7-.8.5-1.9 1.4-2 3h1.9c0 0-2.3 1.3-2.4 3.3l1.7-.4c0 0-1.9 1.8-2 3.8l5.9-4c2.1 2.1 5 3.3 8.1 3.3 6.4 0 11.6-5.2 11.6-11.6.1-6.5-5.1-11.7-11.5-11.7" fill="#ff2753"/><path d="m174.4 215.4l8.8-15.2c0 0-4.9-4-8.8-.7-4.5 3.8-3.8 13 0 15.9" fill="#fff"/><circle cx="176.9" cy="203" r="2.7" fill="#4a3866"/><path d="m179.5 211l8.5 7.1c0 0 10.2-13.7-2.8-17.2l-5.7 10.1" fill="#ffdd5a"/><g fill="#fff"><path d="m189.2 205.7c0 0 2.4 1.9.5 4.4.2-2.2-.5-4.4-.5-4.4"/><path d="m202.9 202.4v13.5h-2.9v-15h1.5c.8.1 1.4.7 1.4 1.5"/><path d="m215 210.2c0 4-1.8 6-5.3 6s-5.3-2-5.3-6 1.8-6.1 5.3-6.1 5.3 2 5.3 6.1m-7.6 0c0 2.3.8 3.4 2.3 3.4s2.2-1.2 2.3-3.5c0-2.3-.7-3.4-2.2-3.4-1.6 0-2.4 1.2-2.4 3.5"/><path d="m216.8 209.9c.1-3.8 2.1-5.6 6-5.6h.4v3h-1c-1.6 0-2.4.9-2.4 2.6v6.1h-3v-6.1"/><path d="m230.1 216.2c-3.5-.1-5.3-2.2-5.3-6.1 0-4 1.8-5.9 5.3-6 3.7 0 5.4 2.3 5.2 6.8h-7.5c.1 1.8.9 2.7 2.3 2.7.7 0 1.3-.3 1.9-.8.3-.3.6-.4 1-.4h2.2c-.7 2.4-2.3 3.8-5.1 3.8m-2.3-7.3h4.4c-.2-1.5-.9-2.3-2.2-2.3-1.2-.1-1.9.7-2.2 2.3"/><path d="m240 208.5v7.4h-3v-6.8c0-3.3 1.7-5 5-5 1.5 0 2.6.3 3.5 1 .8-.6 2-.9 3.5-.9 3.3 0 5 1.7 5 5v6.8h-1.5c-1-.1-1.5-.5-1.5-1.5v-6c-.1-1.2-.7-1.8-2-1.8-1.3 0-2 .6-2 1.8v7.4h-3v-7.4c-.1-1.2-.7-1.8-2-1.8-1.3 0-2 .6-2 1.8"/><path d="m264 202.4v13.5h-2.9v-15h1.5c.8.1 1.4.7 1.4 1.5"/><path d="m276.2 210.2c0 4-1.8 6-5.3 6s-5.3-2-5.3-6 1.8-6.1 5.3-6.1 5.3 2 5.3 6.1m-7.6 0c0 2.3.8 3.4 2.3 3.4s2.2-1.2 2.3-3.5c0-2.3-.7-3.4-2.2-3.4-1.7 0-2.4 1.2-2.4 3.5"/><path d="m277.9 209.9c.1-3.8 2.1-5.6 6-5.6h.4v3h-1c-1.6 0-2.4.9-2.4 2.6v6.1h-3v-6.1"/><path d="m291.2 216.2c-3.5-.1-5.3-2.2-5.3-6.1 0-4 1.8-5.9 5.3-6 3.7 0 5.4 2.3 5.2 6.8h-7.5c.1 1.8.9 2.7 2.3 2.7.7 0 1.3-.3 1.9-.8.3-.3.6-.4 1-.4h2.2c-.7 2.4-2.2 3.8-5.1 3.8m-2.2-7.3h4.4c-.2-1.5-.9-2.3-2.2-2.3-1.3-.1-2 .7-2.2 2.3"/><path d="m301.1 208.5v7.4h-3v-6.8c0-3.3 1.7-5 5-5 1.5 0 2.6.3 3.5 1 .8-.6 2-.9 3.5-.9 3.3 0 5 1.7 5 5v6.8h-1.5c-1-.1-1.5-.5-1.5-1.5v-6c-.1-1.2-.7-1.8-2-1.8-1.3 0-2 .6-2 1.8v7.4h-2.9v-7.4c-.1-1.2-.7-1.8-2-1.8-1.4 0-2.1.6-2.1 1.8"/></g></svg>